<mxfile host="app.diagrams.net" modified="2024-03-14T01:39:48.721Z" agent="Mozilla/5.0 (Windows NT 10.0; Win64; x64) AppleWebKit/537.36 (KHTML, like Gecko) Chrome/122.0.0.0 Safari/537.36" etag="60pgGv-xqwubImJuF3ph" version="24.0.5" type="device">
  <diagram name="第 1 页" id="P9osCMcrQItuJDItJkpf">
    <mxGraphModel dx="794" dy="420" grid="1" gridSize="10" guides="1" tooltips="1" connect="1" arrows="1" fold="1" page="1" pageScale="1" pageWidth="827" pageHeight="1169" math="0" shadow="0">
      <root>
        <mxCell id="0" />
        <mxCell id="1" parent="0" />
        <mxCell id="pRMp-11zHASgi1XdVWck-1" style="edgeStyle=orthogonalEdgeStyle;rounded=0;orthogonalLoop=1;jettySize=auto;html=1;exitX=1;exitY=0.5;exitDx=0;exitDy=0;exitPerimeter=0;entryX=0;entryY=0.5;entryDx=0;entryDy=0;" edge="1" parent="1" source="pRMp-11zHASgi1XdVWck-2" target="pRMp-11zHASgi1XdVWck-3">
          <mxGeometry relative="1" as="geometry" />
        </mxCell>
        <mxCell id="pRMp-11zHASgi1XdVWck-2" value="&lt;font style=&quot;font-size: 20px;&quot;&gt;start&lt;/font&gt;" style="strokeWidth=2;html=1;shape=mxgraph.flowchart.start_1;whiteSpace=wrap;" vertex="1" parent="1">
          <mxGeometry x="100" y="214" width="130" height="90" as="geometry" />
        </mxCell>
        <mxCell id="pRMp-11zHASgi1XdVWck-3" value="&lt;font style=&quot;font-size: 20px;&quot;&gt;input&lt;br&gt;&lt;/font&gt;" style="rounded=1;whiteSpace=wrap;html=1;absoluteArcSize=1;arcSize=14;strokeWidth=2;" vertex="1" parent="1">
          <mxGeometry x="350" y="219" width="201" height="80" as="geometry" />
        </mxCell>
      </root>
    </mxGraphModel>
  </diagram>
</mxfile>
